<svg id="Capa_1" data-name="Capa 1" xmlns="http://www.w3.org/2000/svg" viewBox="0 0 1350 300"><defs><style>.cls-1{fill:#fff;}</style></defs><title>pystrong-light</title><g id="imagotype"><g id="wordmark"><path class="cls-1" d="M464.52,128q-6,11.08-18.78,17.88t-32.25,6.79H387v60.64H355.34V55.35h58.15q18.33,0,31.23,6.33t19.35,17.43a51.08,51.08,0,0,1,.45,48.87Zm-32.92-6.9q6.33-6,6.33-16.86,0-23.07-25.79-23.08H387v45.94h25.12Q425.25,127.08,431.6,121.08Z"/><path class="cls-1" d="M612.84,87.93,535.22,272.57H501.51l27.15-62.45L478.43,87.93H514l32.35,87.57,32.81-87.57Z"/><path class="cls-1" d="M650.17,209.78a48.75,48.75,0,0,1-19.35-15.05,38.1,38.1,0,0,1-7.8-21h31.9a17.36,17.36,0,0,0,7.13,12q6.23,4.75,15.5,4.75,9,0,14.14-3.62t5.09-9.27q0-6.12-6.22-9.17t-19.8-6.67a168.07,168.07,0,0,1-23-7,39.79,39.79,0,0,1-15.38-11.09Q626,136.14,626,123.46a32.54,32.54,0,0,1,6-19q6-8.6,17.2-13.58t26.36-5q22.41,0,35.75,11.2T726,127.3H695.65a16.45,16.45,0,0,0-6.22-11.88Q683.88,111,674.61,111q-8.61,0-13.24,3.17a10.11,10.11,0,0,0-4.64,8.82q0,6.34,6.34,9.62t19.68,6.68a167.16,167.16,0,0,1,22.4,7,39.55,39.55,0,0,1,15.28,11.2q6.45,7.59,6.67,20a33.27,33.27,0,0,1-6,19.46q-6,8.59-17.2,13.46t-26.14,4.86A66.17,66.17,0,0,1,650.17,209.78Z"/><path class="cls-1" d="M790,114v60.64q0,6.34,3.06,9.17t10.29,2.83h14.71v26.7H798.15q-40,0-40-38.92V114H743.17v-26H758.1v-31H790v31h28.06v26Z"/><path class="cls-1" d="M888.54,91.78a44.39,44.39,0,0,1,22.52-5.66v33.26h-8.38q-14.92,0-22.51,7t-7.58,24.44v62.45H840.91V87.93h31.68v19.46A44.56,44.56,0,0,1,888.54,91.78Z"/><path class="cls-1" d="M955.4,207.29a57.83,57.83,0,0,1-22.74-22.74q-8.26-14.7-8.25-33.94t8.48-33.94a58.94,58.94,0,0,1,23.19-22.74,71,71,0,0,1,65.62,0,58.88,58.88,0,0,1,23.19,22.74q8.49,14.71,8.49,33.94t-8.71,33.94a60.34,60.34,0,0,1-23.53,22.74,68.4,68.4,0,0,1-33.15,8A66,66,0,0,1,955.4,207.29Zm48.77-23.76a30.4,30.4,0,0,0,12.1-12.56q4.53-8.37,4.53-20.36,0-17.88-9.4-27.49a30.86,30.86,0,0,0-23-9.62,30.15,30.15,0,0,0-22.74,9.62q-9.16,9.62-9.17,27.49t8.94,27.49A29.45,29.45,0,0,0,988,187.72,33,33,0,0,0,1004.17,183.53Z"/><path class="cls-1" d="M1182.35,100.26q13.8,14.14,13.8,39.49v73.54h-31.68V144.05q0-14.94-7.46-23t-20.37-8q-13.12,0-20.7,8t-7.58,23v69.24h-31.68V87.93h31.68v15.61a43.72,43.72,0,0,1,16.18-12.78,50.06,50.06,0,0,1,21.61-4.64Q1168.54,86.12,1182.35,100.26Z"/><path class="cls-1" d="M1300,91.44a45.35,45.35,0,0,1,16.74,14.37V87.93h31.91V214.19q0,17.43-7,31.11a52.13,52.13,0,0,1-21,21.73q-14,8-33.94,8-26.7,0-43.78-12.45t-19.35-33.94H1255a23.4,23.4,0,0,0,10.75,13.69q8.25,5.1,20,5.09,13.8,0,22.41-8.26t8.59-25V194.73a48,48,0,0,1-16.85,14.71,50.36,50.36,0,0,1-24.55,5.88,53.84,53.84,0,0,1-29-8.14,56.7,56.7,0,0,1-20.7-23q-7.59-14.82-7.58-34.05,0-19,7.58-33.72a55.6,55.6,0,0,1,20.59-22.63,54.88,54.88,0,0,1,29.08-7.91Q1289.38,85.9,1300,91.44Zm12.22,39.37A32,32,0,0,0,1300,118.14a32.69,32.69,0,0,0-16.52-4.41,31.84,31.84,0,0,0-28.4,16.85q-4.63,8.26-4.63,19.58a40.68,40.68,0,0,0,4.63,19.8,33.47,33.47,0,0,0,12.22,13,31.1,31.1,0,0,0,16.18,4.52,32.69,32.69,0,0,0,16.52-4.41,31.88,31.88,0,0,0,12.22-12.67q4.51-8.26,4.52-19.8T1312.23,130.81Z"/></g><g id="isotype"><circle class="cls-1" cx="150" cy="150" r="148.28"/><path d="M94.49,150h111a7.92,7.92,0,0,1,7.92,7.93v55.5a7.92,7.92,0,0,1-7.92,7.93h-111a7.92,7.92,0,0,1-7.92-7.93v-55.5A7.92,7.92,0,0,1,94.49,150Zm103.09-15.86V110.35a47.58,47.58,0,0,0-95.16,0v23.79H94.49a23.8,23.8,0,0,0-23.78,23.79v55.5a23.8,23.8,0,0,0,23.78,23.79h111a23.8,23.8,0,0,0,23.78-23.79v-55.5a23.8,23.8,0,0,0-23.78-23.79Zm-79.3,0V110.35a31.72,31.72,0,0,1,63.44,0v23.79Z"/></g></g></svg>